<svg xmlns="http://www.w3.org/2000/svg" viewBox="0 0 600 600" width="600" height="600">
  <defs>
    <radialGradient id="bg" cx="0.5" cy="0.45" r="0.75">
      <stop offset="0" stop-color="#1d6e3d"/><stop offset="0.7" stop-color="#0f5128"/><stop offset="1" stop-color="#072a15"/>
    </radialGradient>
    <linearGradient id="gold" x1="0" y1="0" x2="0" y2="1">
      <stop offset="0" stop-color="#fbeaa6"/><stop offset="0.5" stop-color="#e3bf57"/><stop offset="1" stop-color="#b8860b"/>
    </linearGradient>
  </defs>
  <rect width="600" height="600" fill="url(#bg)"/>
  <rect x="16" y="16" width="568" height="568" rx="14" fill="none" stroke="url(#gold)" stroke-width="3" opacity="0.8"/>
  <g transform="translate(300,300)" fill="none" stroke-linejoin="round" stroke-linecap="round">
    <g stroke="#062a14" stroke-width="30">
      <circle cx="0" cy="0" r="130"/>
      <path d="M0,-150 C84,-95 84,55 0,110 C-84,55 -84,-95 0,-150 Z"/>
      <path d="M0,-150 C84,-95 84,55 0,110 C-84,55 -84,-95 0,-150 Z" transform="rotate(120)"/>
      <path d="M0,-150 C84,-95 84,55 0,110 C-84,55 -84,-95 0,-150 Z" transform="rotate(240)"/>
    </g>
    <g stroke="url(#gold)" stroke-width="20">
      <circle cx="0" cy="0" r="130"/>
      <path d="M0,-150 C84,-95 84,55 0,110 C-84,55 -84,-95 0,-150 Z"/>
      <path d="M0,-150 C84,-95 84,55 0,110 C-84,55 -84,-95 0,-150 Z" transform="rotate(120)"/>
      <path d="M0,-150 C84,-95 84,55 0,110 C-84,55 -84,-95 0,-150 Z" transform="rotate(240)"/>
    </g>
    <g stroke="#fff6da" stroke-width="3" opacity="0.55">
      <circle cx="0" cy="0" r="130"/>
      <path d="M0,-150 C84,-95 84,55 0,110 C-84,55 -84,-95 0,-150 Z"/>
      <path d="M0,-150 C84,-95 84,55 0,110 C-84,55 -84,-95 0,-150 Z" transform="rotate(120)"/>
      <path d="M0,-150 C84,-95 84,55 0,110 C-84,55 -84,-95 0,-150 Z" transform="rotate(240)"/>
    </g>
  </g>
</svg>
